<svg width="146" height="146" viewBox="0 0 146 146" fill="none" xmlns="http://www.w3.org/2000/svg">
<path d="M146 73C146 113.317 113.317 146 73 146C32.6832 146 0 113.317 0 73C0 32.6832 32.6832 0 73 0C113.317 0 146 32.6832 146 73ZM5.73507 73C5.73507 110.149 35.8506 140.265 73 140.265C110.149 140.265 140.265 110.149 140.265 73C140.265 35.8506 110.149 5.73507 73 5.73507C35.8506 5.73507 5.73507 35.8506 5.73507 73Z" fill="#189CD8"/>
<ellipse cx="48.2256" cy="32.8717" rx="30.6226" ry="15.6971" transform="rotate(-33.0963 48.2256 32.8717)" fill="#189CD8"/>
</svg>
